REM DIRINDEX 1\2,1\3,1\4,1\5
REM DIRNAME cjc004,folder01,folder02,folder03,folder04
TITLE ""
FILE "1Q_t_1530-1539.mp3" MP3
  TRACK 01 AUDIO
    TITLE "3:cjc004_5496"
    INDEX 01 00:00:00
  TRACK 02 AUDIO
    TITLE "0:"
    INDEX 01 00:01:01
  TRACK 03 AUDIO
    TITLE "4:cjc004_5497"
    INDEX 01 00:01:26
  TRACK 04 AUDIO
    TITLE "0:"
    INDEX 01 00:02:57
  TRACK 05 AUDIO
    TITLE "5:cjc004_5498"
    INDEX 01 00:03:06
  TRACK 06 AUDIO
    TITLE "0:"
    INDEX 01 00:06:67
  TRACK 07 AUDIO
    TITLE "3:cjc004_5499"
    INDEX 01 00:07:47
  TRACK 08 AUDIO
    TITLE "0:"
    INDEX 01 00:08:58
  TRACK 09 AUDIO
    TITLE "4:cjc004_5500"
    INDEX 01 00:09:12
  TRACK 10 AUDIO
    TITLE "0:"
    INDEX 01 00:10:27
  TRACK 11 AUDIO
    TITLE "5:cjc004_5501"
    INDEX 01 00:10:51
  TRACK 12 AUDIO
    TITLE "0:"
    INDEX 01 00:15:03
  TRACK 13 AUDIO
    TITLE "3:cjc004_5502"
    INDEX 01 00:15:56
  TRACK 14 AUDIO
    TITLE "0:"
    INDEX 01 00:16:55
  TRACK 15 AUDIO
    TITLE "4:cjc004_5503"
    INDEX 01 00:17:04
  TRACK 16 AUDIO
    TITLE "0:"
    INDEX 01 00:18:23
  TRACK 17 AUDIO
    TITLE "5:cjc004_5504"
    INDEX 01 00:18:42
  TRACK 18 AUDIO
    TITLE "0:"
    INDEX 01 00:21:68
  TRACK 19 AUDIO
    TITLE "3:cjc004_5505"
    INDEX 01 00:22:44
  TRACK 20 AUDIO
    TITLE "0:"
    INDEX 01 00:23:57
  TRACK 21 AUDIO
    TITLE "4:cjc004_5506"
    INDEX 01 00:24:08
  TRACK 22 AUDIO
    TITLE "0:"
    INDEX 01 00:25:21
  TRACK 23 AUDIO
    TITLE "5:cjc004_5507"
    INDEX 01 00:25:43
  TRACK 24 AUDIO
    TITLE "0:"
    INDEX 01 00:30:32
  TRACK 25 AUDIO
    TITLE "3:cjc004_5508"
    INDEX 01 00:31:10
  TRACK 26 AUDIO
    TITLE "0:"
    INDEX 01 00:32:27
  TRACK 27 AUDIO
    TITLE "4:cjc004_5509"
    INDEX 01 00:32:58
  TRACK 28 AUDIO
    TITLE "0:"
    INDEX 01 00:33:56
  TRACK 29 AUDIO
    TITLE "5:cjc004_5510"
    INDEX 01 00:34:06
  TRACK 30 AUDIO
    TITLE "0:"
    INDEX 01 00:39:66
  TRACK 31 AUDIO
    TITLE "3:cjc004_5511"
    INDEX 01 00:40:38
  TRACK 32 AUDIO
    TITLE "0:"
    INDEX 01 00:42:04
  TRACK 33 AUDIO
    TITLE "4:cjc004_5512"
    INDEX 01 00:42:33
  TRACK 34 AUDIO
    TITLE "0:"
    INDEX 01 00:43:52
  TRACK 35 AUDIO
    TITLE "5:cjc004_5513"
    INDEX 01 00:44:01
  TRACK 36 AUDIO
    TITLE "0:"
    INDEX 01 00:48:42
  TRACK 37 AUDIO
    TITLE "3:cjc004_5514"
    INDEX 01 00:49:21
  TRACK 38 AUDIO
    TITLE "0:"
    INDEX 01 00:50:37
  TRACK 39 AUDIO
    TITLE "4:cjc004_5515"
    INDEX 01 00:50:64
  TRACK 40 AUDIO
    TITLE "0:"
    INDEX 01 00:52:02
  TRACK 41 AUDIO
    TITLE "5:cjc004_5516"
    INDEX 01 00:52:34
  TRACK 42 AUDIO
    TITLE "0:"
    INDEX 01 00:58:30
  TRACK 43 AUDIO
    TITLE "3:cjc004_5517"
    INDEX 01 00:59:14
  TRACK 44 AUDIO
    TITLE "0:"
    INDEX 01 01:00:43
  TRACK 45 AUDIO
    TITLE "4:cjc004_5518"
    INDEX 01 01:00:68
  TRACK 46 AUDIO
    TITLE "0:"
    INDEX 01 01:02:18
  TRACK 47 AUDIO
    TITLE "5:cjc004_5519"
    INDEX 01 01:02:42
  TRACK 48 AUDIO
    TITLE "0:"
    INDEX 01 01:06:65
  TRACK 49 AUDIO
    TITLE "3:cjc004_5520"
    INDEX 01 01:07:47
  TRACK 50 AUDIO
    TITLE "0:"
    INDEX 01 01:08:68
  TRACK 51 AUDIO
    TITLE "4:cjc004_5521"
    INDEX 01 01:09:18
  TRACK 52 AUDIO
    TITLE "0:"
    INDEX 01 01:10:43
  TRACK 53 AUDIO
    TITLE "5:cjc004_5522"
    INDEX 01 01:10:65
  TRACK 54 AUDIO
    TITLE "0:"
    INDEX 01 01:15:40
  TRACK 55 AUDIO
    TITLE "3:cjc004_5523"
    INDEX 01 01:16:20
  TRACK 56 AUDIO
    TITLE "0:"
    INDEX 01 01:17:55
  TRACK 57 AUDIO
    TITLE "4:cjc004_5524"
    INDEX 01 01:18:07
  TRACK 58 AUDIO
    TITLE "0:"
    INDEX 01 01:19:36
  TRACK 59 AUDIO
    TITLE "5:cjc004_5525"
    INDEX 01 01:19:64
  TRACK 60 AUDIO
    TITLE "0:"
    INDEX 01 01:26:40
